<svg width="22" height="22" viewBox="0 0 22 22" fill="none" xmlns="http://www.w3.org/2000/svg">
<path d="M21 11C21 13.1118 20.3315 15.1694 19.0902 16.8779C17.8489 18.5863 16.0986 19.858 14.0902 20.5106C12.0817 21.1631 9.91826 21.1631 7.90983 20.5106C5.9014 19.858 4.15111 18.5863 2.90983 16.8779C1.66855 15.1694 1 13.1118 1 11C1 8.88821 1.66855 6.83062 2.90983 5.12215C4.15111 3.41367 5.9014 2.14201 7.90983 1.48943C9.91827 0.836855 12.0817 0.836855 14.0902 1.48944" stroke="white" stroke-width="2" stroke-linecap="round"/>
<path d="M8.49489 9.34641L5.8925 14.8114C5.49145 15.6536 6.35997 16.5377 7.20916 16.1517L13.0157 13.5124C13.2358 13.4123 13.4122 13.2359 13.5123 13.0158L16.1168 7.28579C16.5068 6.42788 15.6021 5.55612 14.7592 5.97756L8.95053 8.88192C8.75112 8.98163 8.59074 9.14512 8.49489 9.34641Z" fill="white"/>
</svg>
