<svg width="25" height="23" viewBox="0 0 25 23" fill="none" xmlns="http://www.w3.org/2000/svg">
<path d="M2.86182 11.4417L2.86182 21.9417H21.8618V11.4417L23.8618 11.4417C24.6618 11.4418 24.5285 10.775 24.3618 10.4417C21.0285 7.44167 14.1618 1.24172 13.3618 0.441721C12.5618 -0.358279 11.6952 0.108388 11.3618 0.441721C9.0285 2.60839 3.76182 7.44172 1.36182 9.44172C-1.03809 11.4417 0.361724 11.4417 0.86177 11.4417H0.861823L2.86182 11.4417Z" fill="#7E93FF"/>
<path d="M9.15271 21.9417C8.72827 22.0782 8.20613 22.0277 7.86182 21.9417H9.15271C9.55008 21.8138 9.86182 21.5219 9.86182 20.9417V14.4417H15.3618V21.4417C15.5009 21.5807 15.5479 21.7879 15.6544 21.9417H16.8618C16.068 22.2671 15.8032 22.1565 15.6544 21.9417H9.15271Z" fill="#242424"/>
</svg>
