<svg width="25" height="24" viewBox="0 0 25 24" fill="none" xmlns="http://www.w3.org/2000/svg">
<path d="M4.57103 22.3648V12.4007L2.77425 12.4006C2.32505 12.4006 1.06731 12.4007 3.22344 10.4078C5.37958 8.41502 10.1111 3.59903 12.2074 1.44014C12.5068 1.108 13.2854 0.643007 14.0041 1.44014C14.7228 2.23727 20.8918 8.41497 23.8864 11.4042C24.0361 11.7364 24.1559 12.4007 23.4372 12.4007C22.7185 12.4006 21.9399 12.4006 21.6404 12.4006V22.8629" stroke="white" stroke-width="2" stroke-linecap="round"/>
<path d="M9.06299 22.863C9.66191 23.029 10.8598 23.0623 10.8598 21.8666C10.8598 20.6709 10.8598 17.0506 10.8598 15.3899H15.8009V22.3648C16.1004 22.6969 16.7891 23.2615 17.1485 22.863" stroke="white" stroke-width="2"/>
</svg>
