<svg width="25" height="28" viewBox="0 0 25 28" fill="none" xmlns="http://www.w3.org/2000/svg">
<path d="M15.18 3C15 2.4895 14.18 1 11.68 1C8.88 1 8.16667 3.32289 8 4.48955V14.2039C8 15.7039 9.6 17.4895 12 17.4895C13.1667 17.4895 15.5 17.0039 15.5 14.2039C15.5 11.4039 15.5 8.66667 15.5 7" stroke="white" stroke-width="2" stroke-linecap="round"/>
<path d="M20.3363 15.6586C19.7749 17.4191 18.6705 18.9566 17.1815 20.0508C15.6925 21.1451 13.8953 21.7398 12.0476 21.7499C10.1998 21.7599 8.39622 21.1847 6.89543 20.1067C5.39463 19.0288 4.27362 17.5033 3.69307 15.7491" stroke="white" stroke-width="2.5" stroke-linecap="round"/>
<path d="M12 22V26" stroke="white" stroke-width="3" stroke-linecap="round"/>
<path d="M2 4L23 25" stroke="white" stroke-width="3" stroke-linecap="round"/>
</svg>
