<svg width="20" height="28" viewBox="0 0 20 28" fill="none" xmlns="http://www.w3.org/2000/svg">
<path d="M13.18 3C13 2.4895 12.18 1 9.68 1C6.88 1 6.16667 3.32289 6 4.48955V14.2039C6 15.7039 7.6 17.4895 10 17.4895C11.1667 17.4895 13.5 17.0039 13.5 14.2039C13.5 11.4039 13.5 8.66667 13.5 7" stroke="white" stroke-width="2" stroke-linecap="round"/>
<path d="M18.3363 15.6586C17.7749 17.4191 16.6705 18.9566 15.1815 20.0508C13.6925 21.1451 11.8953 21.7398 10.0476 21.7499C8.19976 21.7599 6.39622 21.1847 4.89543 20.1067C3.39463 19.0288 2.27362 17.5033 1.69307 15.7491" stroke="white" stroke-width="2.5" stroke-linecap="round"/>
<path d="M10 22V26" stroke="white" stroke-width="3" stroke-linecap="round"/>
</svg>
