<svg width="375" height="343" viewBox="0 0 375 343" fill="none" xmlns="http://www.w3.org/2000/svg">
<g clip-path="url(#clip0)">
<rect width="375" height="343" fill="url(#paint0_linear)"/>
<path d="M126.878 126.5C148.878 74.9 51.0443 46 -0.622334 38C-1.95567 101.667 -5.52233 231.2 -9.12233 240C-13.6223 251 -0.622334 269 25.3777 269C51.3777 269 57.8777 253.5 72.8777 210.5C87.8777 167.5 99.3777 191 126.878 126.5Z" stroke="#BBC6FF" stroke-width="3" stroke-linecap="round" stroke-linejoin="round"/>
<path d="M132.5 35.5C108.5 35.5 85.6667 13.5 81 -2.5H288.5C287.5 6 284.4 23.5 256 25.5C220.5 28 242.5 61 204.5 61C160.5 61 162.5 35.5 132.5 35.5Z" stroke="black" stroke-width="3" stroke-linecap="round" stroke-linejoin="round"/>
<path d="M50.6165 183.099C50.6165 158.635 14.8722 147.506 -3 145V269.823C20.1676 278.345 71.0041 286.266 89.0086 249.771C111.514 204.153 50.6165 213.678 50.6165 183.099Z" fill="#3D2296"/>
<path d="M56.9642 101.519C29.4579 93.1118 -1.04593 83.0034 -12.8596 79C-16.7387 103.187 -22.1694 152.662 -12.8596 157.065C-1.22226 162.57 -2.80916 159.067 31.0448 151.561C64.8988 144.054 62.7829 164.572 96.6369 182.587C130.491 200.602 115.151 158.066 110.39 151.561C105.629 145.055 91.3472 112.028 56.9642 101.519Z" fill="#C4C4C4"/>
<path d="M56.9642 101.519C29.4579 93.1118 -1.04593 83.0034 -12.8596 79C-16.7387 103.187 -22.1694 152.662 -12.8596 157.065C-1.22226 162.57 -2.80916 159.067 31.0448 151.561C64.8988 144.054 62.7829 164.572 96.6369 182.587C130.491 200.602 115.151 158.066 110.39 151.561C105.629 145.055 91.3472 112.028 56.9642 101.519Z" fill="#6745D8"/>
<path d="M322.5 281.5C288.589 281.5 314.838 334.964 316.5 365.5L407.246 356L388 201C384.343 206.893 374.136 222.107 362.567 235.821C348.105 252.964 364.889 281.5 322.5 281.5Z" fill="#FCF2F3"/>
<path d="M388.5 263.5C343.333 275.167 260.5 270 292.5 242C332.5 207 353.5 225.5 364.5 224.5C373.3 223.7 380.5 224.167 383 224.5" stroke="black" stroke-width="3" stroke-linecap="round" stroke-linejoin="round"/>
<path d="M215 321C192.2 309.8 163.167 330 151.5 341.5H253.5C243 341.5 243.5 335 215 321Z" fill="#5756C2"/>
<path d="M299.972 127.605C259.864 101.891 339.934 48.4304 376.263 29C384.801 72.2191 398.17 152.447 383.348 127.605C364.82 96.5526 350.106 159.747 299.972 127.605Z" fill="#3D2296"/>
<path d="M67.5 309C68.8333 290.333 78 249.9 104 237.5C122.137 228.85 128.676 222.293 130.237 218.269C130.187 216.848 130.102 215.571 130 214.5C130.655 215.256 130.914 216.524 130.237 218.269C130.517 226.134 129.743 238.402 125 244.5C118 253.5 98 269 90 279C82 289 72.5 303.5 67.5 309Z" fill="#41B1FE"/>
<path d="M78 308.549C89.4862 293.775 110.182 280.78 138.5 275.5C163.835 270.777 178.401 268.657 181.749 266.073C182.019 265.604 182.266 265.16 182.489 264.748C182.547 265.211 182.3 265.648 181.749 266.073C177.973 272.638 169.734 284.224 161.654 286.904C150.832 290.493 125.59 292.258 113.381 296.122C101.172 299.986 85.2138 306.757 78 308.549Z" fill="#41B1FE"/>
<path d="M68.5 306C67.3462 307.418 62 333 52 347" stroke="#41B1FE" stroke-width="2" stroke-linecap="round" stroke-linejoin="round"/>
<path d="M80.5 307C79.3462 308.418 62.5 325 52 347" stroke="#41B1FE" stroke-width="2" stroke-linecap="round" stroke-linejoin="round"/>
<path d="M364.562 171.841C344.178 177.907 297.199 185.267 272.36 166.178C255.033 152.863 245.141 149.405 240.174 149.54C238.69 150.142 237.375 150.719 236.286 151.231C236.792 150.333 238.02 149.599 240.174 149.54C248.384 146.21 261.734 142.129 270.332 144.113C283.02 147.04 308.446 159.394 322.643 162.851C336.841 166.308 356.484 169.388 364.562 171.841Z" fill="#273B48"/>
<path d="M359.361 162.352C338.534 157.551 315.45 143.578 297.115 119.574C280.712 98.0982 271.912 85.5178 267.667 83.4453C267.049 83.3802 266.467 83.326 265.93 83.2824C266.395 83.0479 266.969 83.1046 267.667 83.4453C276.324 84.3565 292.311 87.4135 298.786 93.8044C307.459 102.364 320.684 124.91 330.273 134.639C339.861 144.368 354.216 156.412 359.361 162.352Z" fill="#273B48"/>
<path d="M362.504 172.093C364.26 172.601 389.897 167.527 406.692 171.262" stroke="#273B48" stroke-width="2" stroke-linecap="round" stroke-linejoin="round"/>
<path d="M358.736 160.656C360.492 161.164 382.338 170.192 406.692 171.262" stroke="#273B48" stroke-width="2" stroke-linecap="round" stroke-linejoin="round"/>
</g>
<defs>
<linearGradient id="paint0_linear" x1="6.01311" y1="6.42159e-06" x2="341.692" y2="372.977" gradientUnits="userSpaceOnUse">
<stop stop-color="#BAC5FF"/>
<stop offset="1" stop-color="#8FA2FF"/>
</linearGradient>
<clipPath id="clip0">
<rect width="375" height="343" fill="white"/>
</clipPath>
</defs>
</svg>
